<svg xmlns="http://www.w3.org/2000/svg" width="16" height="16" viewBox="0 0 16 16" fill="currentColor">
  <g>
    <path d="M0.655,6.4l0,-6.4l3.52,0c0.708,0 1.246,0.057 1.614,0.172c0.368,0.115 0.663,0.318 0.883,0.609c0.22,0.291 0.33,0.613 0.33,0.965c0,0.454 -0.182,0.837 -0.547,1.148c-0.365,0.311 -0.928,0.509 -1.69,0.594c0.278,0.108 0.489,0.214 0.634,0.319c0.307,0.227 0.598,0.511 0.872,0.851l1.381,1.742l-1.322,0l-1.051,-1.332c-0.307,-0.384 -0.56,-0.678 -0.758,-0.882c-0.199,-0.204 -0.376,-0.346 -0.533,-0.428c-0.157,-0.081 -0.317,-0.138 -0.479,-0.17c-0.119,-0.02 -0.314,-0.031 -0.585,-0.031l-1.219,0l0,2.842l-1.051,0Zm1.051,-3.576l2.259,0c0.48,0 0.856,-0.04 1.127,-0.12c0.271,-0.08 0.477,-0.208 0.617,-0.384c0.141,-0.176 0.211,-0.367 0.211,-0.574c0,-0.303 -0.136,-0.552 -0.409,-0.747c-0.273,-0.195 -0.703,-0.293 -1.292,-0.293l-2.513,0l0,2.117Z" />
    <path d="M8.606,6.4l0,-6.4l2.979,0c0.607,0 1.093,0.065 1.46,0.194c0.366,0.13 0.654,0.329 0.861,0.598c0.208,0.269 0.311,0.551 0.311,0.845c0,0.274 -0.092,0.531 -0.276,0.773c-0.184,0.242 -0.462,0.437 -0.834,0.585c0.48,0.114 0.849,0.307 1.108,0.581c0.258,0.274 0.387,0.597 0.387,0.969c0,0.3 -0.079,0.578 -0.236,0.836c-0.157,0.258 -0.351,0.456 -0.582,0.596c-0.231,0.14 -0.521,0.245 -0.869,0.317c-0.348,0.071 -0.775,0.107 -1.281,0.107l-3.028,0Zm1.051,-3.711l1.717,0c0.466,0 0.8,-0.025 1.002,-0.074c0.267,-0.064 0.468,-0.17 0.604,-0.319c0.135,-0.148 0.203,-0.335 0.203,-0.559c0,-0.212 -0.063,-0.399 -0.19,-0.561c-0.126,-0.162 -0.307,-0.272 -0.542,-0.332c-0.235,-0.06 -0.637,-0.09 -1.208,-0.09l-1.587,0l0,1.934Zm0,2.956l1.977,0c0.339,0 0.578,-0.01 0.715,-0.031c0.242,-0.035 0.444,-0.093 0.607,-0.175c0.162,-0.081 0.296,-0.2 0.401,-0.356c0.105,-0.156 0.157,-0.335 0.157,-0.539c0,-0.239 -0.076,-0.446 -0.227,-0.622c-0.152,-0.176 -0.362,-0.3 -0.631,-0.371c-0.269,-0.071 -0.656,-0.107 -1.162,-0.107l-1.836,0l0,2.2Z" />
  </g>
  <path d="M6.452,14.922l0,-6.575l-5.797,0l0,-0.88l13.947,0l0,0.88l-5.821,0l0,6.575l-2.328,0Z" />
</svg>